<?xml version="1.0" standalone="no"?>
<!DOCTYPE svg PUBLIC "-//W3C//DTD SVG 1.1//EN" "http://www.w3.org/Graphics/SVG/1.1/DTD/svg11.dtd" >
<svg xmlns="http://www.w3.org/2000/svg" xmlns:xlink="http://www.w3.org/1999/xlink" version="1.1">
<metadata>
Created by FontForge 20170731 at Thu Jan 19 00:43:31 1928
 By ,,,
Copyright by NGUYEN HONG HAI
</metadata>
<defs>
<font id="HP-Helve-Condense" horiz-adv-x="506" >
  <font-face 
    font-family="HP-Helve-Condense"
    font-weight="400"
    font-stretch="normal"
    units-per-em="1000"
    panose-1="2 11 6 3 5 3 2 2 2 4"
    ascent="800"
    descent="-200"
    x-height="556"
    cap-height="750"
    bbox="-450 -224 1071 1120"
    underline-thickness="0"
    underline-position="0"
    unicode-range="U+0020-2122"
  />
<missing-glyph horiz-adv-x="784" 
d="M49 0v784h686v-784h-686zM686 49v686h-588v-686h588z" />
    <glyph glyph-name=".notdef" horiz-adv-x="784" 
d="M49 0v784h686v-784h-686zM686 49v686h-588v-686h588z" />
    <glyph glyph-name="glyph1" horiz-adv-x="0" 
 />
    <glyph glyph-name="glyph2" horiz-adv-x="342" 
 />
    <glyph glyph-name="space" unicode=" " horiz-adv-x="342" 
 />
    <glyph glyph-name="exclam" unicode="!" horiz-adv-x="342" 
d="M144 184l-22 336v230h90v-230l-22 -336h-46zM212 0h-90v100h90v-100z" />
    <glyph glyph-name="quotedbl" unicode="&#x22;" horiz-adv-x="260" 
d="M44 514v226h52v-226h-52zM156 514v226h52v-226h-52z" />
    <glyph glyph-name="numbersign" unicode="#" 
d="M34 0l78 254h-106l16 60h108l38 124h-108l16 58h110l78 254h56l-78 -254h88l76 254h56l-78 -254h112l-18 -58h-112l-38 -124h112l-14 -60h-116l-78 -254h-54l78 254h-88l-80 -254h-54zM186 314h88l38 124h-88z" />
    <glyph glyph-name="dollar" unicode="$" 
d="M268 326v-264l8 -2q54 0 79 33.5t25 90.5q0 60 -28 92q-22 25 -84 50zM226 62v280q-92 43 -127 75q-57 52 -57 133q0 88 49.5 144t134.5 56v66h44v-66q86 0 130 -52t44 -142v-6h-80q0 44 -6 66q-10 37 -38 50q-27 10 -50 10v-256q91 -41 119 -59q77 -51 77 -157
q0 -102 -48 -159q-51 -61 -150 -61v-100h-42v100q-101 0 -149 61q-43 55 -43 155l2 32h80q0 -87 13 -117q23 -53 97 -53zM226 436v240q-41 0 -67 -25q-31 -30 -31 -89q0 -49 28 -79q20 -22 70 -47z" />
    <glyph glyph-name="percent" unicode="%" horiz-adv-x="846" 
d="M596 750l-332 -766h-54l334 766h52zM756 186q0 -96 -37.5 -141t-102.5 -45h-4q-54 0 -87 42q-39 50 -39 148q0 78 29 120q35 52 111 52q70 0 103 -55q27 -45 27 -121zM622 56q40 0 56 39q12 29 12 75q0 60 -8 86q-16 50 -62 50q-43 0 -58 -49q-8 -27 -8 -87q0 -49 10 -74
q16 -40 58 -40zM194 736q72 0 105 -56q27 -45 27 -122q0 -97 -29.5 -141.5t-92.5 -44.5l-18 2q-67 6 -96 44q-34 44 -34 142q0 79 29 123q35 53 109 53zM190 430q31 0 49.5 26t18.5 88q0 60 -8 86q-15 50 -60 50q-44 0 -59 -49q-9 -29 -9 -87q0 -48 11 -74q17 -40 57 -40z
" />
    <glyph glyph-name="ampersand" unicode="&#x26;" horiz-adv-x="682" 
d="M428 128l-162 242q-54 -39 -76 -71q-28 -41 -28 -99q0 -66 38 -104t104 -38q37 0 67.5 18.5t56.5 51.5zM292 470q41 30 59 55q25 34 25 77q0 34 -19 58t-53 24q-31 0 -50.5 -23.5t-19.5 -56.5q0 -32 19 -71q10 -21 39 -63zM328 414l144 -210q24 68 30 140h74
q-6 -66 -15 -106q-13 -55 -39 -100l98 -140h-100l-48 70q-68 -86 -176 -86q-102 0 -161 58t-59 160q0 79 43 135q32 42 111 93q-36 47 -51 78q-21 44 -21 90q0 64 39 109t103 45q70 0 114 -40t44 -108q0 -56 -41 -109q-33 -42 -89 -79z" />
    <glyph glyph-name="quotesingle" unicode="'" horiz-adv-x="260" 
d="M100 514v226h52v-226h-52z" />
    <glyph glyph-name="parenleft" unicode="(" horiz-adv-x="342" 
d="M232 750h52q-62 -130 -78 -177q-46 -137 -46 -301q0 -142 29.5 -254.5t100.5 -233.5h-58q-75 123 -112 228q-44 124 -44 248q0 142 39 257q32 95 117 233z" />
    <glyph glyph-name="parenright" unicode=")" horiz-adv-x="342" 
d="M102 -216h-52q63 136 78 179q46 137 46 301q0 142 -29.5 253t-100.5 233h58q75 -122 112 -226q44 -124 44 -248q0 -142 -39 -258q-33 -97 -117 -234z" />
    <glyph glyph-name="asterisk" unicode="*" 
d="M114 670l112 -44v124h52v-122l112 42l16 -48l-114 -38l76 -96l-42 -32l-78 98l-72 -94l-42 28l74 92l-112 46z" />
    <glyph glyph-name="plus" unicode="+" 
d="M216 290v216h70v-216h172v-70h-172v-220h-70v220h-172v70h172z" />
    <glyph glyph-name="comma" unicode="," horiz-adv-x="260" 
d="M130 0h-50v100h92v-20v-61q-3 -27 -4 -37q0 -36 -11 -63t-37 -45q-16 -13 -40 -20v44q8 2 13.5 5t10.5 9q15 16 20.5 38.5t5.5 49.5z" />
    <glyph glyph-name="hyphen" unicode="-" horiz-adv-x="342" 
d="M288 276h-242v82h242v-82z" />
    <glyph glyph-name="period" unicode="." horiz-adv-x="260" 
d="M172 0h-92v100h92v-100z" />
    <glyph glyph-name="slash" unicode="/" horiz-adv-x="282" 
d="M48 -28h-62l244 778h62z" />
    <glyph glyph-name="zero" unicode="0" 
d="M132 382l-2 -100q0 -104 20 -154q27 -68 100 -68q77 0 103 95q17 62 17 199v72q0 108 -18 164q-28 86 -102 86h-8q-66 0 -93 -88q-19 -61 -19 -158zM250 -16q-92 0 -142 70q-40 56 -54 156q-8 57 -8 160q0 102 9 160q15 98 55 152q50 68 140 68q93 0 143 -62
q40 -50 54 -144q9 -60 9 -158v-16q0 -116 -9 -175q-15 -97 -56 -149q-49 -62 -141 -62z" />
    <glyph glyph-name="one" unicode="1" 
d="M234 0v546h-160v66q88 0 125 25q44 30 53 113h66v-750h-84z" />
    <glyph glyph-name="two" unicode="2" 
d="M320 308l-136 -124q-28 -25 -41 -50t-13 -58h318v-76h-404q0 46 6.5 84t23.5 78q8 17 26 39q14 17 34 37l142 138q47 45 62.5 76.5t15.5 91.5q0 62 -23 94q-27 38 -87 38q-65 0 -92 -53q-20 -39 -20 -109l2 -18h-84v46q0 43 11.5 80t36.5 70q25 25 52 38q42 20 98 20
q94 0 143 -56t49 -152q0 -78 -31 -132q-24 -42 -89 -102z" />
    <glyph glyph-name="three" unicode="3" 
d="M188 350v74h26q61 0 88 18q42 28 42 110q0 61 -21 90q-25 34 -85 34q-64 0 -88 -44q-18 -33 -18 -104h-80l-2 12q0 93 46 149q50 61 144 61q85 0 136.5 -50.5t51.5 -135.5q0 -63 -23 -103q-26 -45 -83 -65q63 -14 96 -63q30 -45 30 -111q0 -111 -49 -171
q-55 -67 -163 -67q-105 0 -155 64q-45 57 -45 164l2 8h82l-2 -24q0 -59 27 -94q32 -42 99 -42q60 0 90 36.5t30 97.5q0 95 -38 125.5t-138 30.5z" />
    <glyph glyph-name="four" unicode="4" 
d="M302 620l-208 -358h208v358zM28 264l280 486h76v-488h68v-74h-68v-188h-82v188h-274v76z" />
    <glyph glyph-name="five" unicode="5" 
d="M44 196h86l-2 -14q0 -57 27.5 -89.5t84.5 -32.5q62 0 93 55q27 48 27 127q0 78 -22 120q-30 56 -102 56q-76 0 -106 -68h-74l44 386h320v-76h-252l-34 -222q27 27 56 40.5t66 13.5q97 0 147 -73q43 -63 43 -165q0 -114 -43 -184q-53 -86 -161 -86q-94 0 -147 52t-53 144z
" />
    <glyph glyph-name="six" unicode="6" 
d="M372 242q0 71 -24 111q-30 49 -96 49q-67 0 -95 -49q-21 -36 -21 -103l-2 -22q0 -88 35 -130q32 -38 89 -38q66 0 94 62q20 44 20 120zM260 -16q-135 0 -184 117q-32 76 -32 233q0 115 9 177q15 106 59 165q55 74 154 74q82 0 128 -48t46 -130h-84q0 52 -24 78t-76 26
q-83 0 -113 -116q-17 -65 -17 -176q21 46 59 69t81 23q95 0 146 -69q46 -62 46 -159q0 -119 -55.5 -191.5t-142.5 -72.5z" />
    <glyph glyph-name="seven" unicode="7" 
d="M44 660v76h412v-70q-113 -155 -176 -315q-70 -179 -70 -351h-94q46 367 272 660h-344z" />
    <glyph glyph-name="eight" unicode="8" 
d="M132 218q0 -71 25 -110q31 -48 99 -48q53 0 82.5 41.5t29.5 118.5q0 63 -26 100q-31 44 -92 44q-60 0 -91 -44q-27 -39 -27 -102zM156 562l-2 -8q0 -53 25.5 -83.5t74.5 -30.5q52 0 75 35q19 29 19 85q0 54 -19 82q-23 34 -75 34q-53 0 -75.5 -29t-22.5 -85zM188 404
q-63 13 -90.5 56t-27.5 112q0 73 41 120q51 58 149 58q80 0 127 -47t47 -137q0 -61 -26 -102q-30 -47 -88 -58q66 -13 102 -66q32 -48 32 -114q0 -106 -45 -169q-52 -73 -155 -73q-101 0 -154.5 60.5t-53.5 171.5q0 83 47 135q40 44 95 53z" />
    <glyph glyph-name="nine" unicode="9" 
d="M368 490q0 76 -23 123q-31 63 -99 63q-64 0 -93 -57q-23 -44 -23 -115q0 -72 22 -114q29 -56 94 -56t96 48q26 40 26 108zM242 750q135 0 184 -116q32 -75 32 -232q0 -114 -9 -177q-16 -108 -59 -167q-54 -74 -154 -74q-82 0 -128 49t-46 131h84q0 -52 24 -78t76 -26
q83 0 113 116q17 65 17 176q-21 -46 -59 -69t-81 -23q-95 0 -146 69q-46 62 -46 159q0 119 55.5 190.5t142.5 71.5z" />
    <glyph glyph-name="colon" unicode=":" horiz-adv-x="260" 
d="M172 0h-92v100h92v-100zM172 448h-92v100h92v-100z" />
    <glyph glyph-name="semicolon" unicode=";" horiz-adv-x="260" 
d="M80 0v100h92v-20v-61q-3 -27 -4 -37q0 -36 -11 -63t-37 -45q-16 -13 -40 -20v44q8 2 13.5 5t10.5 9q15 16 20.5 38.5t5.5 49.5h-50zM172 448h-92v100h92v-100z" />
    <glyph glyph-name="less" unicode="&#x3c;" 
d="M120 254l340 -190v-74l-418 232v64l418 232v-72z" />
    <glyph glyph-name="equal" unicode="=" 
d="M458 384v-70h-414v70h414zM458 194v-70h-414v70h414z" />
    <glyph glyph-name="greater" unicode="&#x3e;" 
d="M42 64l340 190l-340 192v72l418 -232v-64l-418 -232v74z" />
    <glyph glyph-name="question" unicode="?" 
d="M288 172h-90q0 79 12.5 112t67.5 94l38 46q29 36 42.5 64.5t13.5 67.5q0 51 -23 84q-28 40 -79 40q-68 0 -99 -48q-25 -39 -25 -108l2 -10h-88l-2 12q0 95 47 155q54 69 153 69q93 0 148.5 -50.5t55.5 -137.5q0 -94 -71 -175q-81 -93 -83 -95q-7 -12 -10 -18t-6 -16
q-2 -13 -4 -31t-2 -21zM290 0h-92v100h92v-100z" />
    <glyph glyph-name="at" unicode="@" horiz-adv-x="812" 
d="M432 536q-74 0 -127 -85q-47 -75 -47 -155q0 -40 20.5 -68t57.5 -28q35 0 69 31q27 25 45 61q22 44 35 83q17 51 17 89q0 29 -19.5 50.5t-50.5 21.5zM544 530l14 46h70l-104 -304q-2 -7 -7 -26t-5 -26q0 -30 30 -30q31 0 65 25.5t55 56.5q26 35 39 76.5t13 87.5
q0 118 -92 194q-87 72 -206 72q-139 0 -233.5 -99.5t-94.5 -238.5q0 -136 97 -233t233 -97q79 0 150.5 37.5t117.5 102.5h60q-47 -86 -138 -138t-190 -52q-162 0 -272 113t-110 275q0 157 112.5 267.5t271.5 110.5q135 0 236 -86q108 -93 108 -232q0 -99 -60 -184
q-36 -49 -76 -77q-48 -33 -100 -33q-30 0 -54.5 13t-33.5 39q-23 -24 -54.5 -37t-65.5 -13q-63 0 -101.5 43t-38.5 107q0 111 69 204q75 102 181 102q38 0 68.5 -17t45.5 -49z" />
    <glyph glyph-name="A" unicode="A" horiz-adv-x="564" 
d="M12 0l214 750h110l210 -750h-92l-58 216h-238l-54 -216h-92zM376 292l-96 398l-102 -398h198z" />
    <glyph glyph-name="B" unicode="B" horiz-adv-x="564" 
d="M164 76h130l4 -2q62 0 91 35t29 107q0 87 -47 118q-31 20 -103 20h-104v-278zM164 676v-246h74l30 -2q63 0 93 25q35 29 35 99v6q0 67 -31 92.5t-117 25.5h-84zM278 0h-198v750h222q93 0 140 -52q44 -48 44 -134v-10q0 -60 -25 -96.5t-87 -57.5q70 -10 102 -59
q28 -43 28 -119q0 -108 -55 -165t-157 -57h-14z" />
    <glyph glyph-name="C" unicode="C" horiz-adv-x="564" 
d="M504 526h-84q0 74 -28 115q-33 49 -106 49q-94 0 -127 -114q-19 -65 -19 -190l-2 -54q0 -110 26 -178q37 -96 122 -96q67 0 98 50q23 36 32 112l4 52h84l-4 -46q-7 -69 -10 -84q-9 -39 -34 -76q-30 -41 -70.5 -62.5t-93.5 -21.5q-107 0 -164 64q-46 52 -63 154
q-11 67 -11 184q0 217 68 306q58 76 170 76q100 0 158 -67q54 -63 54 -163v-10z" />
    <glyph glyph-name="D" unicode="D" horiz-adv-x="624" 
d="M304 0h-222v750h206q148 0 211 -105q49 -81 49 -233v-36q0 -165 -46 -257q-60 -119 -198 -119zM166 676v-600h132q85 0 124.5 63t39.5 205v46q0 143 -31 207q-38 79 -133 79h-132z" />
    <glyph glyph-name="E" unicode="E" horiz-adv-x="576" 
d="M158 76h334v-76h-418v750h416v-74h-332v-248h314v-76h-314v-276z" />
    <glyph glyph-name="F" unicode="F" horiz-adv-x="448" 
d="M158 0h-84v750h352v-74h-268v-246h250v-76h-250v-354z" />
    <glyph glyph-name="G" unicode="G" horiz-adv-x="624" 
d="M532 386v-392h-64v118q-18 -63 -63.5 -96.5t-110.5 -33.5q-103 0 -161 64q-48 53 -66 152q-13 70 -13 182q0 106 16 178q21 96 71 147q59 61 161 61q104 0 164 -63t60 -167v-4h-84q0 72 -32 113q-35 45 -104 45h-6q-73 0 -111 -52q-31 -42 -42 -122q-7 -52 -7 -138
l-2 -28q0 -123 21 -188q34 -104 123 -104l12 -2q95 0 131 84q25 58 25 170h-168v76h250z" />
    <glyph glyph-name="H" unicode="H" horiz-adv-x="624" 
d="M162 0h-82v750h82v-312h288v312h82v-750h-82v362h-288v-362z" />
    <glyph glyph-name="I" unicode="I" horiz-adv-x="282" 
d="M182 0h-84v750h84v-750z" />
    <glyph glyph-name="J" unicode="J" horiz-adv-x="448" 
d="M22 236h84v-44q0 -66 11 -91q18 -41 75 -41t78 40q16 30 16 92v558h82v-564q0 -111 -49 -160q-42 -42 -127 -42q-48 0 -82 15q-40 18 -62 57q-15 28 -21.5 66t-6.5 74z" />
    <glyph glyph-name="K" unicode="K" horiz-adv-x="564" 
d="M164 0h-84v750h82v-384l274 384h104l-240 -314l246 -436h-102l-202 362l-78 -102v-260z" />
    <glyph glyph-name="L" unicode="L" 
d="M472 0h-388v750h82v-674h306v-76z" />
    <glyph glyph-name="M" unicode="M" horiz-adv-x="788" 
d="M408 166l148 584h146v-750h-82v714l-26 -102l-156 -612h-100l-156 622q-6 20 -11 41t-11 51v-98v-616h-84v750h148l146 -584q8 -32 12 -56t4 -56z" />
    <glyph glyph-name="N" unicode="N" horiz-adv-x="624" 
d="M452 138v612h82v-750h-136l-210 600q-16 46 -28 114q-1 -11 -1 -23.5v-19.5v-37t1 -36v-598h-82v750h134l214 -614q7 -20 13.5 -39.5t12.5 -42.5q1 8 1 17v14q0 13 -0.5 26t-0.5 27z" />
    <glyph glyph-name="O" unicode="O" horiz-adv-x="552" 
d="M30 392q0 108 14 173q20 94 70 143q59 58 164 58q103 0 161 -58q50 -50 70 -142q15 -69 15 -174q0 -124 -15 -199q-20 -100 -70 -151q-58 -60 -163 -60q-102 0 -160 60q-50 51 -70 151q-16 79 -16 199zM438 390q0 141 -32 212q-40 88 -132 88q-87 0 -126 -83
q-34 -72 -34 -203l2 -14q0 -179 28 -248q34 -84 132 -84t133 84q29 69 29 248z" />
    <glyph glyph-name="P" unicode="P" horiz-adv-x="564" 
d="M170 676v-282h80q97 0 135 24q49 31 49 122q0 79 -48 111q-38 25 -118 25h-98zM170 0h-84v750h198q55 0 99.5 -9.5t75.5 -38.5t46 -70.5t15 -89.5q0 -69 -23 -118q-27 -57 -83 -84q-38 -16 -100.5 -19t-93.5 -3h-50v-318z" />
    <glyph glyph-name="Q" unicode="Q" horiz-adv-x="624" 
d="M496 90l86 -72l-42 -52l-84 70q-24 -24 -66 -39t-84 -15q-102 0 -160 60q-50 51 -70 151q-16 79 -16 199q0 215 70 301q60 73 174 73q105 0 164 -58q49 -48 70 -142q16 -72 16 -174q0 -77 -9 -145q-15 -114 -49 -157zM394 86l-74 58l44 56l70 -56q13 20 23.5 81.5
t10.5 118.5v14q0 178 -29 248q-35 84 -133 84t-132 -84q-28 -68 -28 -248v-16q0 -131 31 -201q38 -85 121 -85l6 2q29 0 48 5.5t42 22.5z" />
    <glyph glyph-name="R" unicode="R" horiz-adv-x="624" 
d="M170 676v-270h130q72 0 109 35t37 99v4q0 84 -59 114q-35 18 -101 18h-116zM170 330v-330h-84v750h194q125 0 183 -41q69 -49 69 -165v-8q0 -66 -39 -109.5t-105 -52.5q71 -9 97 -38t35 -104q0 -55 6 -105q7 -42 10 -63q6 -22 9 -28q8 -18 21 -18v-18h-98
q-13 33 -19.5 88.5t-6.5 103.5q0 62 -27 97q-32 41 -101 41h-144z" />
    <glyph glyph-name="S" unicode="S" horiz-adv-x="564" 
d="M484 554h-84v14q0 54 -31 88t-87 34q-81 0 -113 -45q-21 -30 -21 -89q0 -76 70 -102l120 -44q102 -39 137 -84q31 -40 31 -118q0 -106 -63 -166t-171 -60q-66 0 -114 23q-61 30 -90 97q-11 24 -13.5 57.5t-2.5 78.5h82l-2 -24q0 -78 29 -114q34 -42 115 -42
q65 0 104.5 33.5t39.5 96.5q0 76 -32 104q-14 12 -90 40q-48 17 -74 27q-48 18 -74 31q-49 25 -68.5 67t-19.5 103q0 92 58 149t150 57q100 0 157 -49.5t57 -144.5v-18z" />
    <glyph glyph-name="T" unicode="T" 
d="M16 676v74h470v-74h-194v-676h-82v676h-194z" />
    <glyph glyph-name="U" unicode="U" horiz-adv-x="518" 
d="M52 182v568h82v-538q0 -65 21 -99q34 -55 121 -55q82 0 117 49q25 35 25 93v550h84v-568q0 -98 -60.5 -149t-165.5 -51t-163 49q-61 52 -61 151z" />
    <glyph glyph-name="V" unicode="V" horiz-adv-x="564" 
d="M454 750h92l-216 -750h-104l-214 750h92l172 -690z" />
    <glyph glyph-name="W" unicode="W" horiz-adv-x="846" 
d="M390 510l-110 -510h-102l-160 750h92l98 -516q10 -63 13.5 -91t8.5 -83q5 42 11 85t15 83l110 522h102l100 -516q6 -36 11 -75.5t11 -98.5q5 42 11 85t15 83l108 522h92l-176 -750h-102l-100 510q-12 59 -15 77q-7 46 -7 103q-9 -68 -13 -97q-7 -49 -13 -83z" />
    <glyph glyph-name="X" unicode="X" horiz-adv-x="564" 
d="M18 0l212 386l-206 364h98l156 -292l158 292h98l-206 -364l212 -386h-102l-160 314l-162 -314h-98z" />
    <glyph glyph-name="Y" unicode="Y" horiz-adv-x="564" 
d="M104 750l174 -376l176 376h92l-226 -458v-292h-84v292l-224 458h92z" />
    <glyph glyph-name="Z" unicode="Z" 
d="M474 0h-446v72l354 604h-344v74h430v-72l-354 -602h360v-76z" />
    <glyph glyph-name="bracketleft" unicode="[" horiz-adv-x="342" 
d="M276 -210h-176v960h176v-60h-98v-838h98v-62z" />
    <glyph glyph-name="backslash" unicode="\" horiz-adv-x="260" 
d="M224 0l-256 750h60l254 -750h-58z" />
    <glyph glyph-name="bracketright" unicode="]" horiz-adv-x="342" 
d="M234 -210h-176v62h98v838h-98v60h176v-960z" />
    <glyph glyph-name="asciicircum" unicode="^" 
d="M226 750h48l158 -416h-54l-128 338l-126 -338h-54z" />
    <glyph glyph-name="underscore" unicode="_" 
d="M500 -120h-500v58h500v-58z" />
    <glyph glyph-name="grave" unicode="`" horiz-adv-x="342" 
d="M36 766h108l90 -142h-68z" />
    <glyph glyph-name="a" unicode="a" horiz-adv-x="448" 
d="M288 166v134q-26 -14 -60 -30t-66 -30q-25 -11 -36.5 -37.5t-11.5 -58.5q0 -46 16.5 -69t61.5 -23q32 0 59 23q37 32 37 91zM418 58v-58l-18 -4h-26q-38 0 -54 15.5t-20 64.5q-17 -39 -51.5 -65.5t-74.5 -26.5q-78 0 -112 44q-30 39 -30 120q0 48 20.5 83.5t59.5 52.5
q13 6 95 39q65 26 71 31q9 5 12.5 17t3.5 31v16q0 46 -20 66t-68 20q-51 0 -66.5 -22t-15.5 -76h-70l-2 10q0 156 166 156q92 0 129 -56q23 -35 23 -84v-330l-2 -10q0 -11 3.5 -19.5t12.5 -12.5l16 -4z" />
    <glyph glyph-name="b" unicode="b" 
d="M150 264l-2 -10q0 -89 15 -131q25 -71 97 -71q59 0 84 61q22 54 22 175q0 87 -15 135q-25 81 -91 81q-67 0 -94 -72q-18 -49 -18 -136zM148 0h-72v750h78v-250q49 72 118 72q96 0 141 -86q35 -67 35 -172q0 -149 -29 -224q-41 -106 -143 -106q-40 0 -69 17q-35 20 -57 65
z" />
    <glyph glyph-name="c" unicode="c" horiz-adv-x="448" 
d="M236 504q-69 0 -95 -81q-17 -52 -17 -145l2 -24q0 -84 15 -128q25 -74 91 -74q58 0 81 45q17 33 17 97h76q0 -90 -37 -145q-44 -65 -131 -65q-115 0 -161 90q-33 65 -33 198q0 171 56 241q47 59 136 59q81 0 125 -56q41 -52 41 -134h-74q0 53 -18 83q-23 39 -74 39z" />
    <glyph glyph-name="d" unicode="d" 
d="M346 218v70q0 90 -14 136q-25 80 -94 80q-53 0 -80 -47q-30 -53 -30 -175q0 -145 27 -187.5t85 -42.5q55 0 84 59q22 45 22 107zM346 750h78v-750h-76v74q-28 -51 -57 -70.5t-79 -19.5q-112 0 -148 129q-16 57 -16 167l-2 22q0 118 42 191q46 79 128 79q40 0 69 -17
t59 -55z" />
    <glyph glyph-name="e" unicode="e" horiz-adv-x="448" 
d="M126 336h188q0 76 -11 108q-20 60 -81 60q-60 0 -82 -59q-14 -38 -14 -109zM318 186h74v-12q0 -82 -42 -134q-45 -56 -126 -56q-86 0 -130 64q-50 72 -50 232q0 115 33 189q46 103 145 103q118 0 154 -101q20 -56 20 -199h-270v-39q0 -81 14 -119q23 -62 86 -62
q47 0 71 37q21 32 21 81v16z" />
    <glyph glyph-name="f" unicode="f" horiz-adv-x="282" 
d="M94 0v490h-82v66h80v48q0 39 3 63t17 43q28 42 104 42l44 -2v-66h-32q-31 0 -43.5 -14t-12.5 -54v-60h88v-66h-88v-490h-78z" />
    <glyph glyph-name="g" unicode="g" 
d="M236 504q-68 0 -93 -84q-15 -50 -15 -142q0 -112 20 -164q24 -62 80 -62q78 0 105 86q15 49 15 152q0 94 -23 148q-28 66 -89 66zM348 556h78v-488q0 -63 -6 -94q-9 -44 -36 -86q-24 -40 -64 -59t-88 -19q-71 0 -113 32q-46 35 -53 104h76q6 -36 28 -52t60 -16
q73 0 99 55q17 36 17 105v28q-51 -82 -122 -82q-85 0 -129 65q-49 73 -49 233q0 116 32 189q45 101 144 101q82 0 124 -78z" />
    <glyph glyph-name="h" unicode="h" 
d="M152 372v-372h-78v750h78v-254q30 38 63 57t77 19q64 0 100 -35t36 -107v-430h-78v408q0 47 -19 71.5t-65 24.5q-45 0 -78 -30q-22 -21 -29 -44t-7 -58z" />
    <glyph glyph-name="i" unicode="i" horiz-adv-x="224" 
d="M152 0h-80v556h80v-556zM152 650h-80v100h80v-100z" />
    <glyph glyph-name="j" unicode="j" horiz-adv-x="224" 
d="M14 -190v72q16 0 31.5 3t21 13.5t7.5 24t2 29.5v604h78v-578q0 -98 -29 -133t-111 -35zM154 650h-78v100h78v-100z" />
    <glyph glyph-name="k" unicode="k" horiz-adv-x="448" 
d="M148 0h-78v750h78v-452l192 258h94l-172 -216l178 -340h-92l-140 278l-60 -80v-198z" />
    <glyph glyph-name="l" unicode="l" horiz-adv-x="224" 
d="M152 0h-80v750h80v-750z" />
    <glyph glyph-name="m" unicode="m" horiz-adv-x="788" 
d="M156 372v-372h-80v556h76v-70q23 38 55 60q37 26 79 26q44 0 78.5 -24t53.5 -64q33 46 63 65q36 23 87 23q56 0 102 -40q21 -18 29 -57q5 -24 5 -63v-412h-80v408q0 50 -16 71q-19 25 -68 25q-21 0 -39.5 -7.5t-34.5 -22.5q-22 -21 -29 -44t-7 -58v-372h-80v408
q0 47 -18 71.5t-64 24.5q-48 0 -78 -30q-22 -20 -28 -43t-6 -59z" />
    <glyph glyph-name="n" unicode="n" 
d="M150 556v-60q32 39 63 56q35 20 79 20q64 0 100 -35t36 -107v-430h-78v408q0 47 -19 71.5t-65 24.5q-45 0 -78 -30q-22 -21 -29 -44t-7 -58v-372h-78v556h76z" />
    <glyph glyph-name="o" unicode="o" horiz-adv-x="444" 
d="M420 298q0 -173 -54 -248q-47 -66 -146 -66q-96 0 -144 67q-54 76 -54 247q0 130 49.5 202t148.5 72q101 0 152 -74q48 -69 48 -200zM338 272q0 126 -27 179t-91 53q-61 0 -88.5 -54t-27.5 -178q0 -108 23 -159q27 -61 93 -61t94 61q24 52 24 159z" />
    <glyph glyph-name="p" unicode="p" 
d="M366 288q0 86 -16 135q-27 81 -94 81q-80 0 -98 -118q-6 -39 -6 -106l-2 -18q0 -90 15 -135q25 -75 93 -75q59 0 85 61q23 55 23 175zM152 58v-246h-80v744h76v-62q20 37 50.5 56t67.5 22q95 0 143 -85q39 -69 39 -171q0 -146 -32 -225q-43 -107 -146 -107q-40 0 -69 20
q-23 16 -49 54z" />
    <glyph glyph-name="q" unicode="q" 
d="M138 254q0 -93 20 -141q26 -61 84 -61q68 0 92 79q14 46 14 139v18q0 93 -13 137q-24 79 -91 79q-61 0 -88 -67q-20 -50 -20 -141zM350 556h76v-740h-78v246q-57 -78 -120 -78q-88 0 -130 69.5t-42 216.5l-2 32q0 106 37 180q45 90 129 90q41 0 72.5 -17t55.5 -55z" />
    <glyph glyph-name="r" unicode="r" horiz-adv-x="342" 
d="M158 556v-90q45 96 140 96h24v-78q-7 1 -18 1.5t-16 0.5q-59 0 -93.5 -40.5t-34.5 -107.5v-338h-78v556h76z" />
    <glyph glyph-name="s" unicode="s" horiz-adv-x="448" 
d="M380 408h-76v6q0 90 -88 90t-88 -84q0 -47 35 -70q50 -22 77 -34q95 -43 110 -54q50 -38 50 -106q0 -79 -50.5 -125.5t-137.5 -46.5q-39 0 -78 15t-58.5 42.5t-26.5 53.5t-7 53l2 14h74l-2 -10q0 -49 22.5 -74.5t73.5 -25.5t78.5 22.5t27.5 71.5q0 58 -68 85
q-34 12 -68 25q-72 27 -100 55q-36 36 -36 103q0 72 45 115t117 43q83 0 127.5 -39.5t44.5 -120.5v-4z" />
    <glyph glyph-name="t" unicode="t" horiz-adv-x="282" 
d="M164 708v-152h94v-66h-92v-380l-2 -16q0 -8 3 -13q8 -13 35 -13h54v-68h-98q-35 0 -51 16q-21 21 -21 76v398h-76v66h76v152h78z" />
    <glyph glyph-name="u" unicode="u" horiz-adv-x="420" 
d="M316 0v74q-47 -90 -134 -90q-64 0 -99 36t-35 108v428h78v-432q0 -36 16 -54t56 -18q60 0 94 50q13 20 18.5 44.5t5.5 53.5v356h78v-556h-78z" />
    <glyph glyph-name="v" unicode="v" horiz-adv-x="448" 
d="M178 0l-164 556h82l126 -488l128 488h82l-168 -556h-86z" />
    <glyph glyph-name="w" unicode="w" horiz-adv-x="682" 
d="M374 556l94 -488l100 488h82l-140 -556h-82l-94 490l-90 -490h-82l-142 556h82l100 -488l90 488h82z" />
    <glyph glyph-name="x" unicode="x" horiz-adv-x="448" 
d="M180 286l-160 270h82l124 -200l122 200h82l-160 -270l166 -286h-82l-130 222l-132 -222h-82z" />
    <glyph glyph-name="y" unicode="y" horiz-adv-x="448" 
d="M182 -14l-176 570h82l124 -482l132 482h82l-166 -530q-20 -66 -22 -74q-16 -49 -28 -70q-22 -38 -53 -55t-75 -17q-10 0 -23 0.5t-33 7.5v70q27 -12 58 -12q54 0 76 51q14 39 22 59z" />
    <glyph glyph-name="z" unicode="z" horiz-adv-x="400" 
d="M366 0h-342v62l258 430h-246v64h328v-64l-258 -426h260v-66z" />
    <glyph glyph-name="braceleft" unicode="{" horiz-adv-x="282" 
d="M178 190v-172q0 -45 18 -70.5t70 -41.5l-18 -2q-87 0 -118.5 33.5t-31.5 114.5v176q0 28 -4 41q-7 21 -28 35q-12 9 -26.5 15t-31.5 9q42 8 66 32q16 16 20 31.5t4 42.5v186q0 38 7.5 62.5t34 42t52.5 21.5t74 4q-52 -16 -70 -41t-18 -71v-186q0 -54 -18 -79
q-22 -32 -82 -43q60 -14 82 -50q18 -30 18 -90z" />
    <glyph glyph-name="bar" unicode="|" horiz-adv-x="260" 
d="M94 0v750h64v-750h-64z" />
    <glyph glyph-name="braceright" unicode="}" horiz-adv-x="282" 
d="M98 466v172q0 44 -18 68q-21 27 -72 42l16 2q88 0 121 -33t33 -113v-166l-2 -12q0 -27 6 -43.5t28 -30.5q24 -18 58 -24q-44 -8 -68 -32q-13 -13 -18.5 -29t-5.5 -33l2 -12v-186q0 -39 -6 -58q-9 -30 -36 -48t-53 -22t-75 -4q52 16 71 42t19 72v186q0 54 18 79
q22 32 82 43q-62 14 -83 50q-17 29 -17 90z" />
    <glyph glyph-name="asciitilde" unicode="~" 
d="M162 332q19 0 43.5 -9t52.5 -25q22 -12 35 -19q33 -17 49 -17q26 0 49 28q17 21 33 56l34 -48q-21 -48 -46 -75q-32 -35 -70 -35q-15 0 -41 10q-14 5 -71 34q-19 10 -32 15q-21 9 -36 9q-35 0 -61 -43q-7 -12 -23 -47l-34 48q32 69 59.5 93.5t58.5 24.5z" />
    <glyph glyph-name="uni00A0" unicode="&#xa0;" horiz-adv-x="500" 
 />
    <glyph glyph-name="exclamdown" unicode="&#xa1;" horiz-adv-x="333" 
d="M144 388h45l23 -337v-230h-91v230zM121 571h91v-100h-91v100z" />
    <glyph glyph-name="cent" unicode="&#xa2;" 
d="M200 -10l-28 -128h-48l32 144q-28 14 -50 42q-28 44 -38 98.5t-10 119.5q0 101 21 165q32 97 109 117q27 8 62 8q18 0 28 -2l26 114h50l-30 -128q32 -14 54.5 -40.5t29.5 -63.5q3 -17 5.5 -36.5t2.5 -27.5h-78q0 35 -6.5 59.5t-23.5 38.5l-92 -414q8 -4 32 -4q56 0 79 45
q17 33 17 93h74v-10q0 -6 -2 -19t-2 -19q-7 -40 -16 -62q-12 -30 -36 -54q-18 -18 -50 -30t-60 -12t-52 6zM174 88l90 402q-6 2 -20 2q-42 0 -64 -30q-17 -23 -26 -68q-8 -31 -11 -73t-3 -81q0 -50 6.5 -87t27.5 -65z" />
    <glyph glyph-name="sterling" unicode="&#xa3;" 
d="M126 338h-96v44h76q-26 48 -38 82q-16 44 -16 86q0 69 36 120q30 41 73.5 60.5t104.5 19.5q86 0 139.5 -46.5t60.5 -131.5l2 -36v-14h-84v22v13q0 9 -2 21q-7 49 -39 73.5t-83 24.5q-61 0 -91.5 -37t-30.5 -99q0 -46 23 -101q7 -16 29 -57h164v-44h-144l6 -16
q6 -12 9 -27.5t3 -30.5q0 -58 -34 -113q-28 -46 -80 -87l2 -2q45 30 104 30h16l28 -4q5 -2 47 -12q19 -5 29 -8l28 -4q23 0 44.5 8.5t45.5 25.5l28 -68q-34 -25 -58 -32.5t-68 -7.5q-21 0 -72 16l-44 14q-30 6 -58 6q-32 0 -60 -11q-21 -8 -54 -31l-42 62q59 48 84 86
q34 51 34 114q0 29 -9 59q-3 9 -13 33z" />
    <glyph glyph-name="currency" unicode="&#xa4;" 
d="M28 110l40 42q-22 35 -33 71t-11 77q0 45 10.5 81t33.5 71l-40 42l48 54l38 -44q62 50 140 50q35 0 67 -12.5t63 -37.5l40 44l48 -54l-38 -42q21 -37 31.5 -75.5t10.5 -80.5q0 -40 -10 -72.5t-32 -71.5l38 -42l-48 -52l-40 42q-63 -50 -138 -50q-37 0 -67 12t-65 38
l-38 -42zM250 482q-68 0 -111 -52t-43 -130q0 -74 43.5 -126t108.5 -52q68 0 112 52t44 130q0 71 -43 124.5t-105 53.5h-6z" />
    <glyph glyph-name="yen" unicode="&#xa5;" 
d="M206 262v30l-224 458h102l166 -376l174 376h94l-230 -458v-30h138v-44h-138v-76h138v-44h-138v-98h-82v98h-138v44h138v76h-138v44h138z" />
    <glyph glyph-name="brokenbar" unicode="&#xa6;" horiz-adv-x="250" 
d="M93 0v300h64v-300h-64zM93 750h64v-300h-64v300z" />
    <glyph glyph-name="section" unicode="&#xa7;" 
d="M196 424q-30 -21 -42 -31q-38 -33 -38 -75l-2 -6q0 -30 19 -51q15 -17 55 -45l-2 -2l-6 2l132 -86q47 35 60.5 59t13.5 53q0 28 -19 51q-22 27 -85 73q-14 9 -45 30q-21 14 -41 28zM148 458q-33 22 -51.5 56.5t-18.5 73.5q0 75 49.5 118.5t128.5 43.5t123.5 -46.5
t44.5 -125.5v-4h-82q0 52 -23 80t-73 28q-38 0 -63 -23t-25 -61l-2 -10q0 -27 20.5 -48t111.5 -82q114 -78 122 -85q56 -50 56 -117q0 -53 -31 -96q-23 -33 -75 -70q35 -27 53.5 -57.5t18.5 -72.5q0 -81 -50.5 -124.5t-141.5 -43.5q-80 0 -129 50t-49 128l2 8h80
q0 -56 26.5 -88t81.5 -32q45 0 72.5 23t27.5 67q0 41 -33 74q-29 29 -143 102q-81 52 -110.5 89.5t-29.5 88.5q0 54 32 95q29 37 80 61z" />
    <glyph glyph-name="dieresis" unicode="&#xa8;" horiz-adv-x="40" 
d="M-293 1061q57 0 84 -36q22 -30 22 -78q0 -119 -98 -119l-14 1q-53 0 -77 26q-27 29 -27 94q0 50 23 78q28 34 87 34zM-296 865q33 0 46 25q9 18 9 48q0 39 -6 55q-12 32 -49 32q-35 0 -47 -31q-7 -18 -7 -56q0 -29 9 -47q13 -26 45 -26z" />
    <glyph glyph-name="copyright" unicode="&#xa9;" horiz-adv-x="812" 
d="M402 -18q-164 0 -279 114t-115 280q0 161 115.5 275.5t278.5 114.5q162 0 276 -114t114 -276q0 -164 -114 -279t-276 -115zM402 40q138 0 235 98t97 238q0 138 -97 235t-235 97q-139 0 -236.5 -96.5t-97.5 -235.5q0 -140 97 -238t237 -98zM542 304h58q-7 -69 -59 -111.5
t-123 -42.5q-97 0 -157.5 65.5t-60.5 162.5q0 99 58.5 162.5t157.5 63.5q72 0 122 -39.5t62 -110.5h-58q-7 46 -42.5 74t-83.5 28q-73 0 -114.5 -50.5t-41.5 -125.5q0 -76 42.5 -129t115.5 -53q48 0 84 29t40 77z" />
    <glyph glyph-name="ordfeminine" unicode="&#xaa;" horiz-adv-x="624" 
d="M99 596h440v-452h-440v452z" />
    <glyph glyph-name="guillemotleft" unicode="&#xab;" 
d="M86 342l150 154v-84l-100 -102l100 -102v-82l-150 156v60zM264 342l152 154v-84l-100 -102l100 -102v-82l-152 156v60z" />
    <glyph glyph-name="logicalnot" unicode="&#xac;" horiz-adv-x="833" 
d="M512 75h273v-75h-351v59q-34 -38 -64.5 -57.5t-73.5 -19.5q-80 0 -136 45q-47 38 -74 113q-17 55 -23.5 109.5t-6.5 124.5q0 94 7 147q4 29 12.5 58t22.5 60q27 61 77 93.5t115 32.5q85 0 142 -79l2 64h353v-75h-275v-246h257v-75h-257v-279zM426 248v292
q0 75 -33.5 112.5t-92.5 37.5q-58 0 -92.5 -31t-48.5 -97q-6 -36 -13 -97l-4 -110q0 -119 21 -187q35 -111 128 -111q68 0 99 40q36 45 36 151z" />
    <glyph glyph-name="uni00AD" unicode="&#xad;" horiz-adv-x="342" 
d="M288 276h-242v82h242v-82z" />
    <glyph glyph-name="registered" unicode="&#xae;" horiz-adv-x="812" 
d="M402 766q162 0 276 -114t114 -276q0 -164 -114 -279t-276 -115q-164 0 -279 114t-115 280q0 162 115 276t279 114zM402 708q-139 0 -236.5 -97.5t-97.5 -236.5q0 -140 97 -237t237 -97q138 0 235 97t97 237q0 138 -97 236t-235 98zM466 358l130 -202h-64l-124 202h-98
v-202h-56v440h194q36 0 59.5 -4t46.5 -20q23 -13 36.5 -39t13.5 -55q0 -63 -40 -93q-36 -27 -98 -27zM310 400h82l34 -2q53 0 82 14q40 20 40 68q0 45 -36 62q-25 12 -78 12h-124v-154z" />
    <glyph glyph-name="macron" unicode="&#xaf;" horiz-adv-x="342" 
d="M324 658h-314v58h314v-58z" />
    <glyph glyph-name="degree" unicode="&#xb0;" horiz-adv-x="882" 
d="M449 616q105 0 170 -68t65 -167t-65 -166t-170 -67q-103 0 -167.5 67.5t-64.5 165.5t64.5 166.5t167.5 68.5z" />
    <glyph glyph-name="plusminus" unicode="&#xb1;" 
d="M216 350v156h70v-156h172v-70h-172v-160h-70v160h-172v70h172zM44 0v70h414v-70h-414z" />
    <glyph glyph-name="uni00B2" unicode="&#xb2;" horiz-adv-x="306" 
d="M198 484l-88 -74q-17 -17 -22 -25q-8 -13 -8 -33h202v-52h-262q0 27 4.5 51.5t15.5 46.5q4 12 15.5 29t20.5 25l90 80q46 40 46 94q0 35 -14 53.5t-50 18.5q-35 0 -49.5 -25.5t-14.5 -60.5l2 -14h-62v28q0 27 6.5 48.5t23.5 41.5q16 14 34 22q27 12 64 12q60 0 92 -33
t32 -91q0 -47 -20 -80q-16 -27 -58 -62z" />
    <glyph glyph-name="uni00B3" unicode="&#xb3;" horiz-adv-x="306" 
d="M116 504v56h24q33 0 46 10q20 15 20 60q0 35 -13 51.5t-47 16.5q-36 0 -49 -21t-13 -59h-58l-2 4q0 56 30 90q34 38 96 38q55 0 87.5 -30.5t32.5 -81.5q0 -39 -15 -63.5t-53 -36.5q41 -9 61.5 -36.5t20.5 -67.5q0 -66 -32 -102q-35 -40 -106 -40q-66 0 -98 35t-32 97l2 8
h58l-2 -14q0 -35 18 -55.5t58 -20.5q34 0 52 20t18 56q0 50 -21 68t-73 18h-10z" />
    <glyph glyph-name="acute" unicode="&#xb4;" horiz-adv-x="40" 
d="M-350 936l66 -94l66 94h80l-98 -142h-94l-100 142h80z" />
    <glyph glyph-name="mu" unicode="&#xb5;" 
d="M344 0v74q-47 -90 -134 -90q-14 0 -28.5 7t-27.5 13v-194h-78v746h78v-432q0 -36 16 -54t56 -18q60 0 94 50q13 20 18.5 44.5t5.5 53.5v356h78v-556h-78z" />
    <glyph glyph-name="paragraph" unicode="&#xb6;" horiz-adv-x="448" 
d="M158 -116v482q-63 0 -110.5 56.5t-47.5 133.5q0 41 14 80t39.5 67.5t55.5 37.5t75 9h208v-866h-80v800h-76v-800h-78z" />
    <glyph glyph-name="periodcentered" unicode="&#xb7;" horiz-adv-x="250" 
d="M125 385q23 0 38.5 -15.5t15.5 -38.5q0 -22 -15.5 -38t-38.5 -16q-21 0 -39 15q-15 17 -15 39q0 21 15.5 37.5t38.5 16.5z" />
    <glyph glyph-name="periodcentered" unicode="&#x2219;" horiz-adv-x="250" 
d="M125 385q23 0 38.5 -15.5t15.5 -38.5q0 -22 -15.5 -38t-38.5 -16q-21 0 -39 15q-15 17 -15 39q0 21 15.5 37.5t38.5 16.5z" />
    <glyph glyph-name="cedilla" unicode="&#xb8;" horiz-adv-x="40" 
d="M-296 756l66 -94l66 94h80l-98 -142h-94l-100 142h80z" />
    <glyph glyph-name="uni00B9" unicode="&#xb9;" horiz-adv-x="306" 
d="M172 624h-104v44q58 0 81 14q29 18 35 68h50v-450h-62v324z" />
    <glyph glyph-name="ordmasculine" unicode="&#xba;" horiz-adv-x="664" 
d="M113 618h472v-489h-472v489zM157 576v-409h386v409h-386z" />
    <glyph glyph-name="guillemotright" unicode="&#xbb;" 
d="M416 278l-152 -152v82l100 102l-100 102v84l152 -156v-62zM236 278l-150 -152v82l100 102l-100 102v84l150 -156v-62z" />
    <glyph glyph-name="onequarter" unicode="&#xbc;" horiz-adv-x="752" 
d="M618 372l-134 -214h134v214zM442 162l178 288h58v-292h38v-50h-38v-108h-60v108h-176v54zM144 0l452 750h62l-452 -750h-62zM138 624h-104v44q58 0 81 14q29 18 35 68h50v-450h-62v324z" />
    <glyph glyph-name="onehalf" unicode="&#xbd;" horiz-adv-x="752" 
d="M92 0l452 750h62l-452 -750h-62zM146 624h-104v44q58 0 81 14q29 18 35 68h50v-450h-62v324zM626 184l-88 -74q-17 -17 -22 -25q-8 -13 -8 -33h202v-52h-262q0 27 4.5 51.5t15.5 46.5q4 12 15.5 29t20.5 25l90 80q46 40 46 94q0 35 -14 53.5t-50 18.5q-35 0 -49.5 -25.5
t-14.5 -60.5l2 -14h-62v28q0 27 6.5 48.5t23.5 41.5q16 14 34 22q27 12 64 12q60 0 92 -33t32 -91q0 -47 -20 -80q-16 -27 -58 -62z" />
    <glyph glyph-name="threequarters" unicode="&#xbe;" horiz-adv-x="752" 
d="M632 372l-134 -214h134v214zM456 162l178 288h58v-292h38v-50h-38v-108h-60v108h-176v54zM158 0l452 750h62l-452 -750h-62zM120 504v56h24q33 0 46 10q20 15 20 60q0 35 -13 51.5t-47 16.5q-36 0 -49 -21t-13 -59h-58l-2 4q0 56 30 90q34 38 96 38q55 0 87.5 -30.5
t32.5 -81.5q0 -39 -15 -63.5t-53 -36.5q41 -9 61.5 -36.5t20.5 -67.5q0 -66 -32 -102q-35 -40 -106 -40q-66 0 -98 35t-32 97l2 8h58l-2 -14q0 -35 18 -55.5t58 -20.5q34 0 52 20t18 56q0 50 -21 68t-73 18h-10z" />
    <glyph glyph-name="questiondown" unicode="&#xbf;" horiz-adv-x="500" 
d="M353 46h87q0 -102 -43 -163q-52 -73 -155 -73q-92 0 -148 50.5t-56 137.5q0 81 48 147l101 125q14 19 20 38.5t6 42.5v36h89q0 -79 -12.5 -112t-68 -93.5t-75.5 -99.5q-17 -37 -17 -78q0 -52 22 -84q28 -40 79 -40q71 0 101 52q22 41 22 114zM211 559h91v-100h-91v100z
" />
    <glyph glyph-name="Agrave" unicode="&#xc0;" horiz-adv-x="40" 
d="M-214 792l-66 94l-66 -94h-80l98 142h94l100 -142h-80zM-264 1042h108l90 -142h-68z" />
    <glyph glyph-name="Aacute" unicode="&#xc1;" horiz-adv-x="40" 
d="M-214 792l-66 94l-66 -94h-80l98 142h94l100 -142h-80zM-168 912l90 142h108l-130 -142h-68z" />
    <glyph glyph-name="Acircumflex" unicode="&#xc2;" horiz-adv-x="40" 
d="M-214 792l-66 94l-66 -94h-80l98 142h94l100 -142h-80z" />
    <glyph glyph-name="Atilde" unicode="&#xc3;" horiz-adv-x="40" 
d="M-214 792l-66 94l-66 -94h-80l98 142h94l100 -142h-80zM-158 1084h48q-5 -47 -31.5 -78.5t-70.5 -31.5q-15 0 -36 6q-26 9 -36 12q-17 6 -36.5 13t-35.5 7q-18 0 -31 -13t-15 -31h-48q0 44 28 76t74 32q14 0 33 -5.5t37 -12.5q34 -12 36 -13q22 -7 38 -7t30 14.5t16 31.5
z" />
    <glyph glyph-name="Adieresis" unicode="&#xc4;" horiz-adv-x="40" 
d="M-214 792l-66 94l-66 -94h-80l98 142h94l100 -142h-80zM-324 -52h80v-100h-80v100z" />
    <glyph glyph-name="Aring" unicode="&#xc5;" horiz-adv-x="40" 
d="M-214 792l-66 94l-66 -94h-80l98 142h94l100 -142h-80zM-44 1026q-7 -27 -24 -49q-13 -17 -42 -41l-4 -10v-34h-42v14q0 27 4.5 43.5t21.5 34.5q9 12 14.5 20.5t11.5 19.5q0 20 -11 35t-31 15q-30 0 -41 -15.5t-11 -44.5h-48v6q0 36 26 63q30 31 80 31q46 0 73 -28
q23 -24 23 -60z" />
    <glyph glyph-name="AE" unicode="&#xc6;" horiz-adv-x="282" 
d="M182 0h-84v750h84v-750zM230 920q-7 -27 -24 -49q-13 -17 -42 -41l-4 -10l-2 -12l2 -22h-42l-2 14q0 26 5.5 43t22.5 35q9 12 14.5 20.5t11.5 19.5q0 20 -11 35t-31 15q-30 0 -41 -15.5t-11 -44.5h-48l-2 6q0 36 27 63q31 31 81 31q46 0 73 -28q23 -24 23 -60z" />
    <glyph glyph-name="Ccedilla" unicode="&#xc7;" horiz-adv-x="564" 
d="M504 526h-84q0 74 -28 115q-33 49 -106 49q-94 0 -127 -114q-19 -65 -19 -190l-2 -54q0 -110 26 -178q37 -96 122 -96q67 0 98 50q23 36 32 112l4 52h84l-4 -46q-7 -69 -10 -84q-9 -39 -34 -76q-30 -41 -70.5 -62.5t-93.5 -21.5q-107 0 -164 64q-46 52 -63 154
q-11 67 -11 184q0 217 68 306q58 76 170 76q100 0 158 -67q54 -63 54 -163v-10zM230 -106l-16 20l62 86h48l-46 -62q3 0 11 2t13 2q34 0 60 -16q32 -20 32 -58q0 -48 -40 -72q-33 -20 -84 -20h-8q-45 6 -84 20l18 40q18 -7 23 -8q21 -6 41 -6q22 0 32 5t22 17q4 4 4 16
q0 11 -7 21.5t-21 16.5l-22 4q-7 0 -18 -2.5t-20 -5.5z" />
    <glyph glyph-name="Egrave" unicode="&#xc8;" horiz-adv-x="40" 
d="M-134 912q-9 -53 -50.5 -87.5t-95.5 -34.5q-56 0 -97.5 34t-50.5 88h64q20 -60 84 -60q27 0 49 16.5t31 43.5h66zM-442 1070h108l90 -142h-68z" />
    <glyph glyph-name="Eacute" unicode="&#xc9;" horiz-adv-x="40" 
d="M-134 912q-9 -53 -50.5 -87.5t-95.5 -34.5q-56 0 -97.5 34t-50.5 88h64q20 -60 84 -60q27 0 49 16.5t31 43.5h66zM-324 936l90 142h108l-130 -142h-68z" />
    <glyph glyph-name="Ecircumflex" unicode="&#xca;" horiz-adv-x="40" 
d="M-134 912q-9 -53 -50.5 -87.5t-95.5 -34.5q-56 0 -97.5 34t-50.5 88h64q20 -60 84 -60q27 0 49 16.5t31 43.5h66z" />
    <glyph glyph-name="Edieresis" unicode="&#xcb;" horiz-adv-x="40" 
d="M-134 912q-9 -53 -50.5 -87.5t-95.5 -34.5q-56 0 -97.5 34t-50.5 88h64q20 -60 84 -60q27 0 49 16.5t31 43.5h66zM-320 -52h80v-100h-80v100z" />
    <glyph glyph-name="Igrave" unicode="&#xcc;" horiz-adv-x="282" 
d="M182 0h-84v750h84v-750zM0 946h110l88 -142h-66z" />
    <glyph glyph-name="Iacute" unicode="&#xcd;" horiz-adv-x="282" 
d="M182 0h-84v750h84v-750zM90 812l88 142h110l-132 -142h-66z" />
    <glyph glyph-name="Icircumflex" unicode="&#xce;" horiz-adv-x="564" 
d="M104 750l174 -376l176 376h92l-226 -458v-292h-84v292l-224 458h92zM240 -60h80v-100h-80v100z" />
    <glyph glyph-name="Idieresis" unicode="&#xcf;" horiz-adv-x="40" 
d="M-324 -54h80v-100h-80v100z" />
    <glyph glyph-name="Eth" unicode="&#xd0;" horiz-adv-x="282" 
d="M182 0h-84v750h84v-750zM24 924h80v-100h-80v100zM254 824h-80v100h80v-100z" />
    <glyph glyph-name="Ntilde" unicode="&#xd1;" horiz-adv-x="624" 
d="M82 424v326h206q148 0 211 -105q49 -81 49 -233v-36q0 -165 -46 -257q-60 -119 -198 -119h-222v344h-42v80h42zM166 676v-252h130v-80h-130v-268h132q85 0 124.5 63t39.5 205v46q0 143 -31 207q-38 79 -133 79h-132z" />
    <glyph glyph-name="Ograve" unicode="&#xd2;" horiz-adv-x="282" 
d="M182 0h-84v750h84v-750zM100 -56h80v-100h-80v100z" />
    <glyph glyph-name="Oacute" unicode="&#xd3;" horiz-adv-x="282" 
d="M182 0h-84v750h84v-750zM272 944h48q-5 -47 -31.5 -78.5t-70.5 -31.5q-15 0 -36 6q-26 9 -36 12q-18 6 -37 13t-35 7q-18 0 -31 -13t-15 -31h-48q0 44 28 76t74 32q14 0 33 -5.5t37 -12.5q34 -12 36 -13q22 -7 38 -7t30 14.5t16 31.5z" />
    <glyph glyph-name="Ocircumflex" unicode="&#xd4;" horiz-adv-x="530" 
d="M428 708q6 1 21.5 12t20.5 16q13 12 17.5 26t4.5 32h-56v62h96v-88q0 -28 -30 -58q-13 -12 -23 -19t-19 -11q35 -53 51 -135q13 -66 13 -153q0 -124 -15 -199q-20 -100 -70 -151q-58 -60 -163 -60q-102 0 -160 60q-50 51 -70 151q-16 79 -16 199q0 108 14 173
q20 94 70 143q59 58 164 58q54 0 87 -13.5t63 -44.5zM438 390q0 141 -32 212q-40 88 -132 88q-87 0 -126 -83q-34 -72 -34 -203l2 -14q0 -179 28 -248q34 -84 132 -84t133 84q29 69 29 248z" />
    <glyph glyph-name="Otilde" unicode="&#xd5;" horiz-adv-x="40" 
d="M-158 944h48q-5 -47 -31.5 -78.5t-70.5 -31.5q-15 0 -36 6q-26 9 -36 12q-17 6 -36.5 13t-35.5 7q-18 0 -31 -13t-15 -31h-48q0 44 28 76t74 32q14 0 33 -5.5t37 -12.5q34 -12 36 -13q22 -7 38 -7t30 14.5t16 31.5z" />
    <glyph glyph-name="Odieresis" unicode="&#xd6;" horiz-adv-x="542" 
d="M502 716q7 2 20 11q4 3 11 9t10 14.5t3 15.5v24h-56v62h96v-88q0 -28 -30 -58q-11 -10 -27 -18q-5 -2 -27 -12v-494q0 -98 -60.5 -149t-165.5 -51t-163 49q-61 52 -61 151v568h82v-538q0 -65 21 -99q34 -55 121 -55q82 0 117 49q25 35 25 93v550h84v-34z" />
    <glyph glyph-name="multiply" unicode="&#xd7;" 
d="M202 254l-158 158l50 48l156 -156l158 158l50 -50l-158 -158l158 -156l-50 -50l-158 158l-158 -158l-48 50z" />
    <glyph glyph-name="Oslash" unicode="&#xd8;" horiz-adv-x="40" 
d="M-412 948h108l90 -142h-68z" />
    <glyph glyph-name="Ugrave" unicode="&#xd9;" horiz-adv-x="10" 
d="M-344 806l90 142h108l-130 -142h-68z" />
    <glyph glyph-name="Uacute" unicode="&#xda;" horiz-adv-x="40" 
d="M-134 912q-9 -53 -50.5 -87.5t-95.5 -34.5q-56 0 -97.5 34t-50.5 88h64q20 -60 84 -60q27 0 49 16.5t31 43.5h66zM-186 1032q-7 -27 -24 -49q-13 -17 -42 -41l-4 -10v-34h-42v14q0 27 4.5 43.5t21.5 34.5q9 12 14.5 20.5t11.5 19.5q0 20 -11 35t-31 15q-30 0 -41 -15.5
t-11 -44.5h-48v6q0 36 26 63q30 31 80 31q46 0 73 -28q23 -24 23 -60z" />
    <glyph glyph-name="Ucircumflex" unicode="&#xdb;" horiz-adv-x="40" 
d="M-192 922q-7 -27 -24 -49q-13 -17 -42 -41l-4 -10v-34h-42v14q0 27 4.5 43.5t21.5 34.5q9 12 14.5 20.5t11.5 19.5q0 20 -11 35t-31 15q-30 0 -41 -15.5t-11 -44.5h-48v6q0 36 26 63q30 31 80 31q46 0 73 -28q23 -24 23 -60z" />
    <glyph glyph-name="Udieresis" unicode="&#xdc;" horiz-adv-x="40" 
d="M-134 912q-9 -53 -50.5 -87.5t-95.5 -34.5q-56 0 -97.5 34t-50.5 88h64q20 -60 84 -60q27 0 49 16.5t31 43.5h66zM-80 1066h48q0 -46 -27.5 -78t-74.5 -32q-15 0 -35 6q-25 9 -35 12q-34 12 -36 13q-22 7 -38 7t-30 -13.5t-16 -30.5h-48q5 45 31.5 76.5t70.5 31.5
q14 0 34.5 -5.5t38 -12.5t36.5 -13.5t35 -6.5q18 0 31 14t15 32z" />
    <glyph glyph-name="Yacute" unicode="&#xdd;" horiz-adv-x="282" 
d="M182 0h-84v750h84v-750zM200 810l-66 94l-66 -94h-80l98 142h94l100 -142h-80z" />
    <glyph glyph-name="Thorn" unicode="&#xde;" horiz-adv-x="611" 
d="M162 195l267 429q-36 66 -123 66q-88 0 -128 -86q-33 -72 -33 -212q0 -123 17 -197zM449 574l-270 -435q18 -39 49.5 -60.5t79.5 -21.5q96 0 132 86q29 72 29 249v14v12q0 14 -0.5 31t-3.5 43q0 27 -6 51q-1 4 -10 31zM130 61l-64 -104l-37 24l76 122q-26 51 -36 125
q-4 32 -7 77.5t-3 88.5q0 213 71 299q60 72 177 72q111 0 169 -65l60 96l37 -22l-70 -112q29 -51 42 -127q4 -26 7 -64t3 -77q0 -123 -16 -199q-21 -103 -71 -153q-57 -60 -163 -60q-58 0 -102.5 21t-72.5 58z" />
    <glyph glyph-name="germandbls" unicode="&#xdf;" horiz-adv-x="500" 
d="M231 393v67q56 0 84 27t28 86q0 56 -23 88q-26 37 -80 37q-24 0 -42 -12t-34 -34q-9 -18 -12 -43l-2 -55v-554h-79v538q0 59 6 94q3 17 11.5 34t23.5 36q23 31 59.5 47t77.5 16q79 0 124.5 -51.5t45.5 -133.5q0 -54 -17 -89.5t-62 -58.5q60 -24 85 -83q20 -48 20 -122
q0 -99 -31 -158q-39 -74 -125 -74l-39 3q-15 1 -30 12v78q13 -10 32 -19q9 -4 17.5 -6t20.5 -2l14 1q33 8 48 58q11 39 11 93v19v11q0 41 -5 62q-8 43 -26 60q-16 17 -38 22.5t-50 5.5h-13z" />
    <glyph glyph-name="agrave" unicode="&#xe0;" horiz-adv-x="40" 
d="M-160 608l-66 94l-66 -94h-80l98 142h94l100 -142h-80zM-224 870h108l90 -142h-68z" />
    <glyph glyph-name="aacute" unicode="&#xe1;" horiz-adv-x="40" 
d="M-160 608l-66 94l-66 -94h-80l98 142h94l100 -142h-80zM-114 728l90 142h108l-130 -142h-68z" />
    <glyph glyph-name="acircumflex" unicode="&#xe2;" horiz-adv-x="40" 
d="M-160 608l-66 94l-66 -94h-80l98 142h94l100 -142h-80z" />
    <glyph glyph-name="atilde" unicode="&#xe3;" horiz-adv-x="40" 
d="M-160 608l-66 94l-66 -94h-80l98 142h94l100 -142h-80zM-104 914h48q-5 -47 -31.5 -78.5t-70.5 -31.5q-15 0 -36 6q-26 9 -36 12q-17 6 -36.5 13t-35.5 7q-18 0 -31 -13t-15 -31h-48q0 44 28 76t74 32q14 0 33 -5.5t37 -12.5q34 -12 36 -13q22 -7 38 -7t30 14.5t16 31.5z
" />
    <glyph glyph-name="adieresis" unicode="&#xe4;" horiz-adv-x="40" 
d="M-160 608l-66 94l-66 -94h-80l98 142h94l100 -142h-80zM-188 -156h-80v100h80v-100z" />
    <glyph glyph-name="aring" unicode="&#xe5;" horiz-adv-x="40" 
d="M-160 608l-66 94l-66 -94h-80l98 142h94l100 -142h-80zM6 848q-7 -27 -24 -49q-13 -17 -42 -41l-4 -10v-34h-42v14q0 27 4.5 43.5t21.5 34.5q9 12 14.5 20.5t11.5 19.5q0 20 -11 35t-31 15q-30 0 -41 -15.5t-11 -44.5h-48v6q0 36 26 63q30 31 80 31q46 0 73 -28
q23 -24 23 -60z" />
    <glyph glyph-name="ae" unicode="&#xe6;" horiz-adv-x="224" 
d="M152 0h-80v556h80v-556zM208 728q-7 -27 -24 -49q-13 -17 -42 -41l-4 -10l-2 -12l2 -22h-42l-2 14q0 26 5.5 43t22.5 35q9 12 14.5 20.5t11.5 19.5q0 20 -11 35t-31 15q-30 0 -41 -15.5t-11 -44.5h-48l-2 6q0 36 27 63q31 31 81 31q46 0 73 -28q23 -24 23 -60z" />
    <glyph glyph-name="ccedilla" unicode="&#xe7;" horiz-adv-x="448" 
d="M236 504q-69 0 -95 -81q-17 -52 -17 -145l2 -24q0 -84 15 -128q25 -74 91 -74q58 0 81 45q17 33 17 97h76q0 -90 -37 -145q-44 -65 -131 -65q-115 0 -161 90q-33 65 -33 198q0 171 56 241q47 59 136 59q81 0 125 -56q41 -52 41 -134h-74q0 53 -18 83q-23 39 -74 39z
M174 -106l-16 20l62 86h48l-46 -62q3 0 11 2t13 2q34 0 60 -16q32 -20 32 -58q0 -48 -40 -72q-33 -20 -84 -20h-8q-45 6 -84 20l18 40q18 -7 23 -8q21 -6 41 -6q22 0 32 5t22 17q4 4 4 16q0 11 -7 21.5t-21 16.5l-22 4q-7 0 -18 -2.5t-20 -5.5z" />
    <glyph glyph-name="egrave" unicode="&#xe8;" horiz-adv-x="40" 
d="M-84 732q-9 -53 -50.5 -87.5t-95.5 -34.5q-56 0 -97.5 34t-50.5 88h64q20 -60 84 -60q27 0 49 16.5t31 43.5h66zM-390 888h108l90 -142h-68z" />
    <glyph glyph-name="eacute" unicode="&#xe9;" horiz-adv-x="40" 
d="M-84 732q-9 -53 -50.5 -87.5t-95.5 -34.5q-56 0 -97.5 34t-50.5 88h64q20 -60 84 -60q27 0 49 16.5t31 43.5h66zM-262 746l90 142h108l-130 -142h-68z" />
    <glyph glyph-name="ecircumflex" unicode="&#xea;" horiz-adv-x="40" 
d="M-84 732q-9 -53 -50.5 -87.5t-95.5 -34.5q-56 0 -97.5 34t-50.5 88h64q20 -60 84 -60q27 0 49 16.5t31 43.5h66z" />
    <glyph glyph-name="edieresis" unicode="&#xeb;" horiz-adv-x="40" 
d="M-84 732q-9 -53 -50.5 -87.5t-95.5 -34.5q-56 0 -97.5 34t-50.5 88h64q20 -60 84 -60q27 0 49 16.5t31 43.5h66zM-188 -156h-80v100h80v-100z" />
    <glyph glyph-name="igrave" unicode="&#xec;" horiz-adv-x="224" 
d="M152 0h-80v556h80v-556zM-32 756h110l88 -142h-66z" />
    <glyph glyph-name="iacute" unicode="&#xed;" horiz-adv-x="224" 
d="M152 0h-80v556h80v-556zM50 614l88 142h110l-132 -142h-66z" />
    <glyph glyph-name="icircumflex" unicode="&#xee;" horiz-adv-x="448" 
d="M182 -14l-176 570h82l124 -482l132 482h82l-166 -530q-20 -66 -22 -74q-16 -49 -28 -70q-22 -38 -53 -55t-75 -17q-10 0 -23 0.5t-33 7.5v70q27 -12 58 -12q54 0 76 51q14 39 22 59zM362 -156h-80v100h80v-100z" />
    <glyph glyph-name="idieresis" unicode="&#xef;" horiz-adv-x="10" 
d="M-188 -154h-80v100h80v-100z" />
    <glyph glyph-name="eth" unicode="&#xf0;" horiz-adv-x="224" 
d="M152 0h-80v556h80v-556zM6 732h80v-100h-80v100zM236 632h-80v100h80v-100z" />
    <glyph glyph-name="ntilde" unicode="&#xf1;" 
d="M346 686v64h78v-64h36v-66h-36v-620h-76v74q-28 -51 -57 -70.5t-79 -19.5q-112 0 -148 129q-16 57 -16 167l-2 22q0 118 42 191q46 79 128 79q40 0 69 -17t59 -55l2 120h-98v66h98zM346 218v70q0 90 -14 136q-25 80 -94 80q-53 0 -80 -47q-30 -53 -30 -175
q0 -145 27 -187.5t85 -42.5q55 0 84 59q22 45 22 107z" />
    <glyph glyph-name="ograve" unicode="&#xf2;" horiz-adv-x="224" 
d="M152 0h-80v556h80v-556zM152 650h-80v100h80v-100zM152 -156h-80v100h80v-100z" />
    <glyph glyph-name="oacute" unicode="&#xf3;" horiz-adv-x="224" 
d="M152 0h-80v556h80v-556zM236 750h48q-5 -47 -31.5 -78.5t-70.5 -31.5q-15 0 -36 6q-26 9 -36 12q-18 6 -37 13t-35 7q-18 0 -31 -13t-15 -31h-48q0 44 28 76t74 32q14 0 33 -5.5t37 -12.5q34 -12 36 -13q22 -7 38 -7t30 14.5t16 31.5z" />
    <glyph glyph-name="ocircumflex" unicode="&#xf4;" horiz-adv-x="424" 
d="M372 486q23 -35 35.5 -82.5t12.5 -105.5q0 -173 -54 -248q-47 -66 -146 -66q-96 0 -144 67q-54 76 -54 247q0 130 49.5 202t148.5 72q42 0 75.5 -15t58.5 -43q5 1 14 10l12 12q8 6 11 14.5t3 15.5v22h-56v62h96v-14v-31q-3 -24 -4 -33q0 -25 -15.5 -48.5t-42.5 -37.5z
M338 272q0 126 -27 179t-91 53q-61 0 -88.5 -54t-27.5 -178q0 -108 23 -159q27 -61 93 -61t94 61q24 52 24 159z" />
    <glyph glyph-name="otilde" unicode="&#xf5;" horiz-adv-x="40" 
d="M-104 750h48q-5 -47 -31.5 -78.5t-70.5 -31.5q-15 0 -36 6q-26 9 -36 12q-17 6 -36.5 13t-35.5 7q-18 0 -31 -13t-15 -31h-48q0 44 28 76t74 32q14 0 33 -5.5t37 -12.5q34 -12 36 -13q22 -7 38 -7t30 14.5t16 31.5z" />
    <glyph glyph-name="odieresis" unicode="&#xf6;" horiz-adv-x="434" 
d="M412 484l-18 -8v-476h-78v74q-47 -90 -134 -90q-64 0 -99 36t-35 108v428h78v-432q0 -36 16 -54t56 -18q60 0 94 50q13 20 18.5 44.5t5.5 53.5v356h78v-40q5 1 12.5 7.5t14 12.5t10 14t3.5 14v22h-56v62h96v-34v-17v-15q-2 -9 -2 -12q0 -25 -16.5 -48.5t-43.5 -37.5z" />
    <glyph glyph-name="divide" unicode="&#xf7;" 
d="M44 220v70h414v-70h-414zM290 406h-80v100h80v-100zM290 4h-80v100h80v-100z" />
    <glyph glyph-name="oslash" unicode="&#xf8;" horiz-adv-x="40" 
d="M-358 766h108l90 -142h-68z" />
    <glyph glyph-name="ugrave" unicode="&#xf9;" horiz-adv-x="10" 
d="M-294 624l90 142h108l-130 -142h-68z" />
    <glyph glyph-name="uacute" unicode="&#xfa;" horiz-adv-x="40" 
d="M-84 732q-9 -53 -50.5 -87.5t-95.5 -34.5q-56 0 -97.5 34t-50.5 88h64q20 -60 84 -60q27 0 49 16.5t31 43.5h66zM-134 856q-7 -27 -24 -49q-13 -17 -42 -41l-4 -10v-34h-42v14q0 27 4.5 43.5t21.5 34.5q9 12 14.5 20.5t11.5 19.5q0 20 -11 35t-31 15q-30 0 -41 -15.5
t-11 -44.5h-48v6q0 36 26 63q30 31 80 31q46 0 73 -28q23 -24 23 -60z" />
    <glyph glyph-name="ucircumflex" unicode="&#xfb;" horiz-adv-x="40" 
d="M-142 744q-7 -27 -24 -49q-13 -17 -42 -41l-4 -10v-34h-42v14q0 27 4.5 43.5t21.5 34.5q9 12 14.5 20.5t11.5 19.5q0 20 -11 35t-31 15q-30 0 -41 -15.5t-11 -44.5h-48v6q0 36 26 63q30 31 80 31q46 0 73 -28q23 -24 23 -60z" />
    <glyph glyph-name="udieresis" unicode="&#xfc;" horiz-adv-x="40" 
d="M-84 732q-9 -53 -50.5 -87.5t-95.5 -34.5q-56 0 -97.5 34t-50.5 88h64q20 -60 84 -60q27 0 49 16.5t31 43.5h66zM-16 890h48q-5 -47 -31.5 -78.5t-70.5 -31.5q-15 0 -36 6q-26 9 -36 12q-17 6 -36.5 13t-35.5 7q-18 0 -31 -13t-15 -31h-48q0 44 28 76t74 32q14 0 33 -5.5
t37 -12.5q34 -12 36 -13q22 -7 38 -7t30 14.5t16 31.5z" />
    <glyph glyph-name="OE" unicode="&#x152;" horiz-adv-x="40" 
d="M-192 922q-7 -27 -24 -49q-13 -17 -42 -41l-4 -10v-34h-42v14q0 27 4.5 43.5t21.5 34.5q9 12 14.5 20.5t11.5 19.5q0 20 -11 35t-31 15q-30 0 -41 -15.5t-11 -44.5h-48v6q0 36 26 63q30 31 80 31q46 0 73 -28q23 -24 23 -60z" />
    <glyph glyph-name="oe" unicode="&#x153;" horiz-adv-x="40" 
d="M-142 744q-7 -27 -24 -49q-13 -17 -42 -41l-4 -10v-34h-42v14q0 27 4.5 43.5t21.5 34.5q9 12 14.5 20.5t11.5 19.5q0 20 -11 35t-31 15q-30 0 -41 -15.5t-11 -44.5h-48v6q0 36 26 63q30 31 80 31q46 0 73 -28q23 -24 23 -60z" />
    <glyph glyph-name="Scaron" unicode="&#x160;" horiz-adv-x="40" 
d="M-386 890h80v-100h-80v100zM-156 790h-80v100h80v-100z" />
    <glyph glyph-name="scaron" unicode="&#x161;" horiz-adv-x="40" 
d="M-324 714h80v-100h-80v100zM-94 614h-80v100h80v-100z" />
    <glyph glyph-name="Ydieresis" unicode="&#x178;" horiz-adv-x="564" 
d="M104 750l174 -376l176 376h92l-226 -458v-292h-84v292l-224 458h92zM240 -60h80v-100h-80v100z" />
    <glyph glyph-name="florin" unicode="&#x192;" horiz-adv-x="500" 
d="M10 -179l10 68q14 -11 44 -11l27 3q14 3 27 11t28 59l20 94l60 363h-110v67h122q23 131 43 176q44 99 137 99q41 0 70 -11l-17 -77q-20 21 -53 21q-39 0 -61 -41q-5 -10 -9.5 -27l-13.5 -51l-17 -89h121v-67h-130l-52 -329q-12 -81 -33 -144q-27 -83 -62 -103
q-7 -4 -17.5 -8.5t-23.5 -8t-23.5 -5.5t-23.5 -2q-34 0 -63 13z" />
    <glyph glyph-name="circumflex" unicode="&#x2c6;" horiz-adv-x="342" 
 />
    <glyph glyph-name="tilde" unicode="&#x2dc;" horiz-adv-x="40" 
d="M-233 861q57 0 84 -36q22 -30 22 -78q0 -119 -98 -119l-14 1q-53 0 -77 26q-27 29 -27 94q0 50 23 78q28 34 87 34zM-236 665q33 0 46 25q9 18 9 48q0 39 -6 55q-12 32 -49 32q-35 0 -47 -31q-7 -18 -7 -56q0 -29 9 -47q13 -26 45 -26z" />
    <glyph glyph-name="endash" unicode="&#x2013;" horiz-adv-x="546" 
d="M0 276v70h500v-70h-500z" />
    <glyph glyph-name="emdash" unicode="&#x2014;" horiz-adv-x="1047" 
d="M0 276v70h1000v-70h-1000z" />
    <glyph glyph-name="quoteleft" unicode="&#x2018;" horiz-adv-x="224" 
d="M158 768v-46q-33 -6 -43 -55q-5 -24 -5 -47h48v-98h-94l2 98q0 55 18 90q22 43 74 58z" />
    <glyph glyph-name="quoteright" unicode="&#x2019;" horiz-adv-x="224" 
d="M64 504v46q29 5 41 40q9 26 9 62h-50v98h94v-98q0 -55 -19 -90q-23 -43 -75 -58z" />
    <glyph glyph-name="quotesinglbase" unicode="&#x201a;" horiz-adv-x="833" 
d="M229 290h197v385h-14zM427 0v215h-233l-100 -215h-94l366 750h419v-75h-276v-248h257v-75h-257v-277h273v-75h-355z" />
    <glyph glyph-name="quotedblleft" unicode="&#x201c;" horiz-adv-x="400" 
d="M156 768v-46q-33 -6 -43 -55q-5 -24 -5 -47h48v-98h-94l2 98q0 54 17 88q23 45 75 60zM328 768v-46q-29 -5 -39.5 -35.5t-10.5 -66.5h50v-98h-94v98q0 55 18 89q23 44 76 59z" />
    <glyph glyph-name="quotedblright" unicode="&#x201d;" horiz-adv-x="400" 
d="M62 504v46q29 5 41 40q9 26 9 62h-50v98h94v-98q0 -55 -18 -89q-23 -44 -76 -59zM234 504v46q33 6 43 55q5 24 5 47h-48v98h94l-2 -98q0 -54 -18 -89q-23 -44 -74 -59z" />
    <glyph glyph-name="quotedblbase" unicode="&#x201e;" horiz-adv-x="667" 
d="M288 218v81l-57 -27q-81 -37 -102 -63.5t-21 -71.5q0 -39 18.5 -62t58.5 -23q55 0 86 41q15 20 15 53zM370 335h178v16q0 79 -22 115t-63 36q-61 0 -82 -57q-5 -15 -8 -42.5t-3 -67.5zM630 270h-260l-1 -35q0 -22 1 -44t4.5 -54t18.5 -58q9 -14 27 -22q18 -5 42 -5
q49 0 72 42q17 34 17 87h73q0 -84 -37 -137q-42 -59 -124 -59q-54 0 -86 21t-56 70q-55 -91 -158 -91q-69 0 -103 41t-34 109q0 58 20 94q17 30 52 51q20 12 54 24q96 34 111 41t23.5 26t8.5 41q0 45 -20.5 67.5t-67.5 22.5q-43 0 -64 -27q-19 -27 -19 -71h-75q0 65 30 109
q40 58 126 58q40 0 75 -15.5t57 -47.5q46 61 122 61q110 0 149 -101q22 -63 22 -198z" />
    <glyph glyph-name="dagger" unicode="&#x2020;" horiz-adv-x="500" 
d="M210 -176v633h-170v70h170v223h80v-223h171v-70h-171v-633h-80z" />
    <glyph glyph-name="daggerdbl" unicode="&#x2021;" horiz-adv-x="500" 
d="M211 51h-172v70h171v328h-169v70h170v231h80v-231h171v-70h-171v-328h171v-70h-171v-227h-80v227z" />
    <glyph glyph-name="bullet" unicode="&#x2022;" horiz-adv-x="342" 
 />
    <glyph glyph-name="ellipsis" unicode="&#x2026;" horiz-adv-x="600" 
d="M172 0h-92v100h92v-100zM342 0h-92v100h92v-100zM512 0h-92v100h92v-100z" />
    <glyph glyph-name="perthousand" unicode="&#x2030;" horiz-adv-x="1111" 
d="M718 186q0 -104 -30.5 -145t-105.5 -41q-63 0 -98.5 43.5t-35.5 145.5q0 79 29 121q35 52 110 52q70 0 104 -55q27 -45 27 -121zM582 306q-42 0 -58 -49q-9 -30 -9 -88q0 -25 2 -41t9 -32q17 -40 57 -40t57 39q11 28 11 74q0 63 -8 87q-15 50 -61 50zM579 750l-341 -766
h-53l339 766h55zM317 560q0 -103 -32 -142.5t-107 -39.5q-66 0 -97 40q-34 45 -34 145q0 79 29 121q35 52 110 52q70 0 104 -55q27 -45 27 -121zM181 680q-33 0 -51 -31q-16 -32 -16 -108q0 -47 11 -70q15 -37 57 -37q31 0 49.5 23.5t18.5 83.5q0 63 -8 88q-15 51 -61 51z
M1071 186q0 -102 -30.5 -144t-104.5 -42q-66 0 -99 42q-36 45 -36 147q0 79 29 121q35 52 110 52q70 0 104 -55q27 -45 27 -121zM935 306q-42 0 -58 -49q-9 -30 -9 -88q0 -25 2 -41t9 -32q17 -40 57 -40t57 39q11 28 11 74q0 63 -8 87q-15 50 -61 50z" />
    <glyph glyph-name="guilsinglleft" unicode="&#x2039;" horiz-adv-x="342" 
d="M86 342l150 154v-84l-100 -102l100 -102v-82l-150 156v60z" />
    <glyph glyph-name="guilsinglright" unicode="&#x203a;" horiz-adv-x="342" 
d="M236 278l-150 -152v82l100 102l-100 102v84l150 -156v-62z" />
    <glyph glyph-name="trademark" unicode="&#x2122;" horiz-adv-x="750" 
d="M719 750v-421h-55v361l-120 -361h-32l-115 361l-2 -361h-55v421h89l99 -297l103 297h88zM280 750v-60h-109v-361h-61v361h-110v60h280z" />
    <glyph glyph-name="glyph98" horiz-adv-x="342" 
 />
    <glyph glyph-name="glyph99" horiz-adv-x="342" 
 />
    <glyph glyph-name="glyph111" horiz-adv-x="342" 
 />
    <glyph glyph-name="glyph112" horiz-adv-x="342" 
 />
    <glyph glyph-name="glyph113" horiz-adv-x="342" 
 />
    <glyph glyph-name="glyph114" horiz-adv-x="342" 
 />
    <glyph glyph-name="glyph127" horiz-adv-x="722" 
d="M674 274h-260l1 -55q0 -73 12 -108q21 -59 82 -59q48 0 70 44q11 23 20 88h75q0 -72 -34 -127q-44 -72 -127 -72q-95 0 -142 80q-23 -36 -59.5 -58t-81.5 -22q-120 0 -162 100q-28 68 -28 204q0 142 46 212t137 70q48 0 87 -20q40 -18 64 -58q21 36 53.5 57t74.5 21
q102 0 145 -85q29 -58 29 -152l-1 -38zM122 266q0 -93 12 -135q23 -79 95 -79q66 0 87 59q17 48 17 175q0 62 -5 102.5t-17 66.5q-21 49 -77 49q-75 0 -99 -88q-13 -52 -13 -150zM414 339h185v25q0 64 -13 94q-20 46 -75 46q-59 0 -83 -58q-14 -37 -14 -107z" />
    <glyph glyph-name="glyph128" horiz-adv-x="342" 
 />
  </font>
</defs>
</svg>
